<svg width="24" height="24" viewBox="0 0 24 24" fill="none" xmlns="http://www.w3.org/2000/svg">
<path d="M6.99072 20.9951C4.78172 20.9951 2.99072 19.2041 2.99072 16.9951V12.9951C2.99072 10.7861 4.78172 8.99514 6.99072 8.99514C7.54272 8.99514 7.99072 9.44314 7.99072 9.99514C7.99072 10.5471 7.54272 10.9951 6.99072 10.9951C5.88572 10.9951 4.99072 11.8901 4.99072 12.9951V16.9951C4.99072 18.1001 5.88572 18.9951 6.99072 18.9951H16.9907C18.0957 18.9951 18.9907 18.1001 18.9907 16.9951V12.9951C18.9907 11.8901 18.0957 10.9951 16.9907 10.9951C16.4387 10.9951 15.9907 10.5471 15.9907 9.99514C15.9907 9.44314 16.4387 8.99514 16.9907 8.99514C19.1997 8.99514 20.9907 10.7861 20.9907 12.9951V16.9951C20.9907 19.2041 19.1997 20.9951 16.9907 20.9951H6.99072ZM11.9907 13.9951C11.4387 13.9951 10.9907 13.5471 10.9907 12.9951V5.43314L8.99072 7.40115L7.58472 5.99514L11.2717 2.27614C11.6627 1.88614 12.3187 1.88614 12.7097 2.27614L16.3967 5.99514L14.9907 7.40115L12.9907 5.43314V12.9951C12.9907 13.5471 12.5427 13.9951 11.9907 13.9951Z" fill="black"/>
</svg>
